#!OML:ASF H:\LiuWeirdWalks\Patient Classification 1\Patient 1\Session 1\male.ASF
:FULLY-SPECIFIED
:DEGREES
382
root 1.80244 17.1003 8.74877 1.27189 8.72461 -6.34878
lowerback 16.7025 0.77126 -3.00947
upperback -0.384517 0.771317 3.33376
thorax -9.92501 0.625614 5.1694
lowerneck -21.9366 -0.936526 4.03821
upperneck 22.0332 -1.95139 -2.78028
head 10.6424 -0.894702 -1.97067
rclavicle -2.3879e-014 -1.27222e-014
rhumerus -41.6433 -1.94741 -75.1216
rradius 41.6472
rwrist -9.47046
rhand -21.8404 5.20846
rfingers 7.12502
rthumb 4.56284 -24.7224
lclavicle -2.3879e-014 -1.27222e-014
lhumerus -34.2166 -4.90815 84.3017
lradius 41.6712
lwrist 5.30248
lhand -18.133 -9.34564
lfingers 7.12502
lthumb 8.14201 20.4775
rfemur -19.3187 -18.4245 19.8112
rtibia 75.4987
rfoot -19.3027 -18.6584
rtoes -10.7623
lfemur -23.9904 -0.640026 -20.2427
ltibia 53.1883
lfoot -20.5759 15.5886
ltoes -10.8926
383
root 1.79871 17.1271 8.84406 1.60276 8.95227 -6.21686
lowerback 16.7236 0.73689 -3.05355
upperback -0.43951 0.71518 3.31367
thorax -9.99197 0.60327 5.1882
lowerneck -21.9977 -0.954894 4.0356
upperneck 21.8617 -1.97891 -2.78093
head 10.5897 -0.910091 -1.97208
rclavicle -9.46712e-015 -1.36167e-014
rhumerus -41.1824 -2.2976 -75.0305
rradius 41.3902
rwrist -9.0334
rhand -22.0272 5.29256
rfingers 7.12502
rthumb 4.3825 -24.6421
lclavicle -9.46712e-015 -1.36167e-014
lhumerus -33.6918 -5.05972 84.3475
lradius 42.0186
lwrist 5.39314
lhand -18.3714 -9.34248
lfingers 7.12502
lthumb 7.91184 20.4895
rfemur -19.5656 -18.2641 19.9
rtibia 75.5377
rfoot -19.2649 -18.7475
rtoes -10.8354
lfemur -24.0432 -0.585995 -20.344
ltibia 53.2419
lfoot -20.1794 15.3852
ltoes -11.6992
384
root 1.79394 17.1513 8.93848 1.91005 9.20235 -6.10762
lowerback 16.7766 0.695988 -3.07576
upperback -0.485796 0.654761 3.30106
thorax -10.0668 0.578088 5.20409
lowerneck -22.0422 -0.968181 4.04517
upperneck 21.6445 -1.99828 -2.79893
head 10.5174 -0.923552 -1.97939
rclavicle 6.29899e-015 1.39149e-015
rhumerus -40.6821 -2.60365 -74.9762
rradius 41.0969
rwrist -8.71055
rhand -22.1807 5.35939
rfingers 7.12502
rthumb 4.23427 -24.5783
lclavicle 6.29899e-015 1.39149e-015
lhumerus -33.186 -5.24153 84.3978
lradius 42.3854
lwrist 5.50118
lhand -18.6172 -9.3814
lfingers 7.12502
lthumb 7.67463 20.4593
rfemur -19.7542 -18.0952 20.0073
rtibia 75.5686
rfoot -19.232 -18.8454
rtoes -10.8688
lfemur -24.1538 -0.473181 -20.4206
ltibia 53.425
lfoot -19.766 15.1358
ltoes -12.4293
385
root 1.78823 17.1729 9.03111 2.20911 9.489 -6.00343
lowerback 16.8696 0.642535 -3.08197
upperback -0.541668 0.579985 3.28634
thorax -10.1732 0.54623 5.21307
lowerneck -22.0404 -0.993315 4.03074
upperneck 21.4155 -2.03099 -2.79017
head 10.4325 -0.941803 -1.97421
rclavicle -1.22128e-014 4.96962e-015
rhumerus -40.1924 -2.86632 -74.9607
rradius 40.8075
rwrist -8.52689
rhand -22.294 5.43529
rfingers 7.12502
rthumb 4.12483 -24.5045
lclavicle -1.22128e-014 4.96962e-015
lhumerus -32.7396 -5.46375 84.4497
lradius 42.8013
lwrist 5.61576
lhand -18.8754 -9.45998
lfingers 7.12502
lthumb 7.42538 20.3897
rfemur -19.9119 -17.9293 20.1175
rtibia 75.5995
rfoot -19.195 -18.9373
rtoes -10.8101
lfemur -24.3441 -0.339431 -20.489
ltibia 53.7307
lfoot -19.3244 14.844
ltoes -13.0613
386
root 1.78126 17.1906 9.12215 2.4945 9.80656 -5.92449
lowerback 16.9928 0.583967 -3.05677
upperback -0.592633 0.505254 3.28201
thorax -10.2913 0.513355 5.21611
lowerneck -22.0447 -1.02651 3.99646
upperneck 21.1887 -2.07011 -2.77457
head 10.3499 -0.963755 -1.9644
rclavicle 4.28132e-014 -4.17448e-015
rhumerus -39.6746 -3.10404 -74.9611
rradius 40.5074
rwrist -8.48293
rhand -22.3431 5.50061
rfingers 7.12502
rthumb 4.07741 -24.4401
lclavicle 4.28132e-014 -4.17448e-015
lhumerus -32.3002 -5.71819 84.515
lradius 43.2225
lwrist 5.68229
lhand -19.1222 -9.55218
lfingers 7.12502
lthumb 7.18723 20.3058
rfemur -20.0421 -17.7504 20.2602
rtibia 75.6321
rfoot -19.1548 -19.03
rtoes -10.719
lfemur -24.6033 -0.205757 -20.5176
ltibia 54.1508
lfoot -18.8764 14.5123
ltoes -13.5898
